# xmcd
#
# Track frame offsets:
#	150
#	14218
#	26421
#	41039
#	59692
#	80537
#	94527
#	113305
#	132191
#	146343
#	168505
#	180045
#	193861
#	207310
#
# Disc length: 2969 seconds
#
# Revision: 0
# Processed by: cddbd v1.5.2PL0 Copyright (c) Steve Scherf et al.
# Submitted via: EasyCDDAExtractor 10.0.2.1
#
DISCID=b80b970e
DTITLE=Buddy Melton - Bluegrass
DYEAR=2007
DGENRE=Bluegrass
TTITLE0=Caney Fork River
TTITLE1=Dig A Hole In The Meadow
TTITLE2=Midnight And Lomesome
TTITLE3=Ruby (Are You Mad)
TTITLE4=He Had The World On His Shoulders
TTITLE5=My Rose Of Old Kentucky
TTITLE6=Burning Georgia Down
TTITLE7=Blue And Lonesome
TTITLE8=Get In Line Brother
TTITLE9=Good Old Boys Like Me
TTITLE10=Big Sandy River
TTITLE11=99 Years
TTITLE12=Green Pastures
TTITLE13=Pretty Molly
EXTD=
EXTT0=
EXTT1=
EXTT2=
EXTT3=
EXTT4=
EXTT5=
EXTT6=
EXTT7=
EXTT8=
EXTT9=
EXTT10=
EXTT11=
EXTT12=
EXTT13=
PLAYORDER=
